{"title":"Thor 2011 720p BrRip x264 1GB [Dual-Audio] English-Hindi NimitMa","uid":7726810,"size":1140812554,"categoryP":"video","categoryS":"hd___movies","magnet":"?xt=urn:btih:8edf3abe6e2c270b24742930547182b4e0f8e149&amp;dn=Thor+2011+720p+BrRip+x264+1GB+%5BDual-Audio%5D+English-Hindi+NimitMa&amp;tr=udp%3A%2F%2Ftracker.openbittorrent.com%3A80&amp;tr=udp%3A%2F%2Fopen.demonii.com%3A1337&amp;tr=udp%3A%2F%2Ftracker.coppersurfer.tk%3A6969&amp;tr=udp%3A%2F%2Fexodus.desync.com%3A6969","seeders":1,"leechers":0,"uploader":"nimitmak","files":8,"time":1350234941,"description":"::General::\nComplete name: Thor 2011 720p BrRip x264 1GB [Dual-Audio] English-Hindi NimitMak SilverRG\nDirector: Kenneth Branagh, Joss Whedon(director: post-credits scene) (uncredited)\nFormat: MPEG-4\nFile size: 1.05 GiB\nDuration: 1h 54mn\nOverall Bitrate: 1305 Kbps\nLanguage: Dual Audio[English-Hindi(Dolby-Digital 5.1)]\nSub Title: Embedded + .srt (Can Be Turned Off)\nEncoded date: 2012-10-07\nWriting application: MeGui\nWriting library: x264 core 100 r1659 57b2e56\nEncoder: NimitMak\nSource: BrRip YIFY (Thanks)\n\n\n\n::IMDB INFO::\nIMDB Link:http://www.imdb.com/title/tt0800369/\nIMDB Rating:7.0/10\nRelease Date:29 April 2011 (India)\nGenre: Action | Adventure | Fantasy \nYouTube\n\n\n\n::Video::\nID: 1\nFormat: AVC\nFormat/Info: Advanced Video Codec\nFormat profile: &lt;a class=&quot;__cf_email__&quot; href=&quot;/cdn-cgi/l/email-protection&quot; data-cfemail=&quot;2961404e4169651a0718&quot;&gt;[email&amp;#160;protected]&lt;/a&gt;&lt;script cf-hash='f9e31' type=&quot;text/javascript&quot;&gt;\n/* &lt;![CDATA[ */!function(){try{var t=&quot;currentScript&quot;in document?document.currentScript:function(){for(var t=document.getElementsByTagName(&quot;script&quot;),e=t.length;e--;)if(t[e].getAttribute(&quot;cf-hash&quot;))return t[e]}();if(t&amp;&amp;t.previousSibling){var e,r,n,i,c=t.previousSibling,a=c.getAttribute(&quot;data-cfemail&quot;);if(a){for(e=&quot;&quot;,r=parseInt(a.substr(0,2),16),n=2;a.length-n;n+=2)i=parseInt(a.substr(n,2),16)^r,e+=String.fromCharCode(i);e=document.createTextNode(e),c.parentNode.replaceChild(e,c)}}}catch(u){}}();/* ]]&gt; */&lt;/script&gt;\nFormat settings, CABAC: Yes\nFormat settings, ReFrames: 5 frames\nCodec ID: V_MPEG4/ISO/AVC\nNominal Bitrate: 822 Kbps/3629 Kbps(Max)\nWidth: 1280 pixels\nHeight: 544 pixels\nDisplay aspect ratio: 2.35:1\nFrame rate: 23.976 fps\nColor space: YUV\nChroma subsampling: 4:2:0\nBit depth: 8 bits\nScan type: Progressive\nWriting library: x264 core 100 r1659 57b2e56\n\n\n\n::Audio #1::\nID: 2\nFormat: AAC\nFormat/Info: Advanced Audio Codec\nFormat profile : HE-AAC / LC\nCodec ID: 40\nDuration: 1h 54mn\nBit rate mode: Variable\nBit rate : 32.0 Kbps\nMaximum bit rate: 63.8 Kbps\nChannel(s): 2 channels\nChannel positions: Front: L R\nSampling rate: 48.0 KHz / 24.0 KHz\nCompression mode: Lossy\nStream size : 26.3 MiB (2%)\nTitle : English - NimitMak SilverRG\n\n::Audio #2::\nID: 3\nFormat : AC-3\nFormat/Info: Audio Coding 3\nMode extension: CM (complete main)\nCodec ID: ac-3\nDuration: 1h 54mn\nBit rate mode: Constant\nBit rate: 448 Kbps\nChannel(s): 6 channels\nChannel positions: Front: L C R, Side: L R, LFE\nSampling rate: 48.0 KHz\nBit depth: 16 bits\nCompression mode: Lossy\nStream size: 368 MiB (34%)\nTitle : Hindi - NimitMak SilverRG\n\n::Text #1::\nID: 4\nFormat: Timed text\nCodec ID: tx3g\nDuration: 1h 54mn\nBit rate mode: Variable\nBit rate: 47 bps\nStream size : 39.4 KiB (0%)\nTitle: English - NimitMak SilverRG\n\nScreens :\n &lt;a href=&quot;\nhttp://www.shotpix.com/images/10632559414227913742.jpg&quot; rel=&quot;nofollow&quot; target=&quot;_NEW&quot;&gt;\nhttp://www.shotpix.com/images/10632559414227913742.jpg&lt;/a&gt;","torrent":{"xt":"urn:btih:8edf3abe6e2c270b24742930547182b4e0f8e149","amp;dn":"Thor+2011+720p+BrRip+x264+1GB+%5BDual-Audio%5D+English-Hindi+NimitMa","amp;tr":["udp%3A%2F%2Ftracker.openbittorrent.com%3A80","udp%3A%2F%2Fopen.demonii.com%3A1337","udp%3A%2F%2Ftracker.coppersurfer.tk%3A6969","udp%3A%2F%2Fexodus.desync.com%3A6969"],"infoHash":"8edf3abe6e2c270b24742930547182b4e0f8e149","infoHashBuffer":{"type":"Buffer","data":[142,223,58,190,110,44,39,11,36,116,41,48,84,113,130,180,224,248,225,73]},"announce":[],"urlList":[]}}